<svg xmlns="http://www.w3.org/2000/svg" xmlns:xlink="http://www.w3.org/1999/xlink" width="500" zoomAndPan="magnify" viewBox="0 0 375 374.999991" height="500" preserveAspectRatio="xMidYMid meet" version="1.0"><defs><clipPath id="2a49cf8b93"><path d="M 51.5625 0 L 323.8125 0 L 323.8125 375 L 51.5625 375 Z M 51.5625 0 " clip-rule="nonzero"/></clipPath></defs><g clip-path="url(#2a49cf8b93)"><path fill="#007bbb" d="M 165.761719 305.027344 C 160.441406 289.515625 150.707031 275.894531 137.753906 265.835938 L 105.910156 241.113281 C 73.210938 215.730469 53.351562 177.230469 51.628906 135.871094 C 51.628906 60.832031 112.460938 0 187.5 0 C 262.539062 0 323.371094 60.832031 323.371094 135.871094 C 321.648438 177.230469 301.789062 215.730469 269.089844 241.113281 L 237.246094 265.835938 C 224.292969 275.894531 214.558594 289.515625 209.238281 305.027344 L 205.496094 315.953125 C 202.855469 323.640625 195.628906 328.804688 187.5 328.804688 C 179.371094 328.804688 172.144531 323.640625 169.503906 315.953125 Z M 187.5 375 C 157.484375 375 133.152344 371.351562 133.152344 366.847656 C 133.152344 362.347656 157.484375 358.695312 187.5 358.695312 C 217.515625 358.695312 241.847656 362.347656 241.847656 366.847656 C 241.847656 371.351562 217.515625 375 187.5 375 Z M 187.5 241.847656 C 247.53125 241.847656 296.195312 193.183594 296.195312 133.152344 C 296.195312 73.121094 247.53125 24.457031 187.5 24.457031 C 127.46875 24.457031 78.804688 73.121094 78.804688 133.152344 C 78.804688 193.183594 127.46875 241.847656 187.5 241.847656 Z M 166.007812 118.796875 C 155.824219 118.796875 147.847656 107.625 147.847656 93.359375 C 147.847656 79.105469 155.824219 67.9375 166.007812 67.9375 C 176.195312 67.9375 184.175781 79.105469 184.175781 93.359375 C 184.175781 107.625 176.195312 118.796875 166.007812 118.796875 Z M 122.128906 134.273438 C 117.269531 123.675781 119.511719 112.574219 127.230469 108.992188 C 128.804688 108.265625 130.492188 107.898438 132.261719 107.898438 C 139.050781 107.898438 145.894531 113.234375 149.695312 121.496094 C 154.558594 132.078125 152.320312 143.175781 144.605469 146.761719 C 143.023438 147.492188 141.332031 147.859375 139.566406 147.859375 L 139.5625 147.859375 C 132.773438 147.859375 125.925781 142.527344 122.128906 134.273438 Z M 208.988281 118.796875 C 198.800781 118.796875 190.824219 107.625 190.824219 93.359375 C 190.824219 79.105469 198.800781 67.9375 208.988281 67.9375 C 219.171875 67.9375 227.148438 79.105469 227.148438 93.359375 C 227.148438 107.625 219.171875 118.796875 208.988281 118.796875 Z M 225.316406 121.496094 C 229.117188 113.234375 235.953125 107.898438 242.738281 107.898438 C 244.507812 107.898438 246.203125 108.265625 247.769531 108.996094 C 255.492188 112.582031 257.730469 123.683594 252.871094 134.269531 C 249.070312 142.527344 242.230469 147.859375 235.4375 147.859375 C 233.671875 147.859375 231.980469 147.492188 230.414062 146.769531 C 222.675781 143.167969 220.441406 132.070312 225.316406 121.496094 Z M 147.117188 159.070312 C 147.878906 157.808594 157.859375 141.363281 166.921875 133.152344 C 174.550781 126.261719 186.195312 126.0625 187.496094 126.0625 C 188.804688 126.0625 200.449219 126.261719 208.070312 133.148438 C 217.140625 141.363281 227.121094 157.808594 227.882812 159.070312 C 233.253906 167.601562 236.542969 173.160156 236.542969 179.546875 C 236.542969 191.195312 228.121094 198.71875 215.082031 198.71875 L 214.792969 198.71875 C 210.007812 198.71875 206.582031 198.449219 199.390625 194.691406 C 199.339844 194.664062 199.285156 194.636719 199.234375 194.609375 C 199.199219 194.585938 193.386719 191.363281 187.84375 191.714844 C 187.613281 191.730469 187.382812 191.730469 187.15625 191.714844 C 181.621094 191.367188 175.800781 194.585938 175.75 194.617188 C 175.710938 194.636719 175.652344 194.671875 175.613281 194.691406 C 168.421875 198.449219 164.996094 198.71875 160.207031 198.71875 L 159.917969 198.71875 C 146.878906 198.71875 138.457031 191.195312 138.457031 179.546875 C 138.457031 173.160156 141.746094 167.601562 147.117188 159.070312 Z M 147.117188 159.070312 " fill-opacity="1" fill-rule="nonzero"/></g></svg>