<svg xmlns="http://www.w3.org/2000/svg" viewBox="0 0 24 24" fill="none"><path fill-rule="evenodd" clip-rule="evenodd" d="M7 6a5 5 0 1 1 10 0A5 5 0 0 1 7 6Zm5-3a3 3 0 1 0 0 6 3 3 0 0 0 0-6Z" fill="#f8f5f5" class="fill-000000"></path><path d="M4.062 21a8.001 8.001 0 0 1 10.493-6.584l.948.32.638-1.896-.947-.319A9.99 9.99 0 0 0 12 12C6.477 12 2 16.477 2 22v1h9v-2H4.062Z" fill="#f8f5f5" class="fill-000000"></path><path fill-rule="evenodd" clip-rule="evenodd" d="M20 12.586 23.414 16l-7 7H13v-3.414l7-7Zm-5 7.828V21h.586l5-5-.586-.586-5 5Z" fill="#f8f5f5" class="fill-000000"></path></svg>