<svg xmlns="http://www.w3.org/2000/svg" xmlns:xlink="http://www.w3.org/1999/xlink" width="575" zoomAndPan="magnify" viewBox="0 0 431.25 281.25" height="375" preserveAspectRatio="xMidYMid meet" version="1.0"><defs><g/><clipPath id="c28f0a3e87"><path d="M 6.175781 35.316406 L 150.554688 35.316406 L 150.554688 234.460938 L 6.175781 234.460938 Z M 6.175781 35.316406 " clip-rule="nonzero"/></clipPath></defs><g clip-path="url(#c28f0a3e87)"><path fill="#007bbb" d="M 66.820312 197.300781 C 63.996094 189.0625 58.828125 181.828125 51.949219 176.488281 L 35.039062 163.359375 C 17.671875 149.878906 7.128906 129.433594 6.210938 107.46875 C 6.210938 67.621094 38.515625 35.316406 78.367188 35.316406 C 118.214844 35.316406 150.519531 67.621094 150.519531 107.46875 C 149.605469 129.433594 139.058594 149.878906 121.695312 163.359375 L 104.785156 176.488281 C 97.90625 181.828125 92.734375 189.0625 89.910156 197.300781 L 87.921875 203.101562 C 86.519531 207.183594 82.683594 209.925781 78.367188 209.925781 C 74.050781 209.925781 70.210938 207.183594 68.808594 203.101562 Z M 78.367188 234.457031 C 62.425781 234.457031 49.503906 232.519531 49.503906 230.128906 C 49.503906 227.738281 62.425781 225.800781 78.367188 225.800781 C 94.304688 225.800781 107.226562 227.738281 107.226562 230.128906 C 107.226562 232.519531 94.304688 234.457031 78.367188 234.457031 Z M 78.367188 163.75 C 110.246094 163.75 136.089844 137.90625 136.089844 106.027344 C 136.089844 74.148438 110.246094 48.304688 78.367188 48.304688 C 46.484375 48.304688 20.644531 74.148438 20.644531 106.027344 C 20.644531 137.90625 46.484375 163.75 78.367188 163.75 Z M 66.953125 98.402344 C 61.542969 98.402344 57.308594 92.46875 57.308594 84.894531 C 57.308594 77.324219 61.542969 71.394531 66.953125 71.394531 C 72.363281 71.394531 76.601562 77.324219 76.601562 84.894531 C 76.601562 92.46875 72.363281 98.402344 66.953125 98.402344 Z M 43.652344 106.621094 C 41.070312 100.992188 42.261719 95.097656 46.359375 93.195312 C 47.195312 92.808594 48.09375 92.613281 49.03125 92.613281 C 52.636719 92.613281 56.273438 95.449219 58.289062 99.835938 C 60.871094 105.457031 59.683594 111.347656 55.585938 113.253906 C 54.746094 113.640625 53.847656 113.835938 52.910156 113.835938 C 49.304688 113.835938 45.667969 111.003906 43.652344 106.621094 Z M 89.777344 98.402344 C 84.367188 98.402344 80.128906 92.46875 80.128906 84.894531 C 80.128906 77.324219 84.367188 71.394531 89.777344 71.394531 C 95.183594 71.394531 99.421875 77.324219 99.421875 84.894531 C 99.421875 92.46875 95.183594 98.402344 89.777344 98.402344 Z M 98.449219 99.835938 C 100.464844 95.449219 104.097656 92.613281 107.699219 92.613281 C 108.640625 92.613281 109.539062 92.8125 110.371094 93.199219 C 114.472656 95.101562 115.660156 100.996094 113.082031 106.617188 C 111.0625 111.003906 107.429688 113.835938 103.824219 113.835938 C 102.886719 113.835938 101.988281 113.640625 101.15625 113.257812 C 97.046875 111.34375 95.859375 105.449219 98.449219 99.835938 Z M 56.921875 119.789062 C 57.324219 119.121094 62.625 110.386719 67.4375 106.027344 C 71.488281 102.367188 77.675781 102.261719 78.363281 102.261719 C 79.058594 102.261719 85.242188 102.367188 89.289062 106.023438 C 94.105469 110.386719 99.40625 119.117188 99.8125 119.789062 C 102.664062 124.320312 104.410156 127.273438 104.410156 130.664062 C 104.410156 136.847656 99.9375 140.84375 93.011719 140.84375 L 92.859375 140.84375 C 90.316406 140.84375 88.5 140.703125 84.679688 138.707031 C 84.652344 138.691406 84.625 138.675781 84.597656 138.660156 C 84.578125 138.648438 81.492188 136.9375 78.550781 137.125 C 78.425781 137.132812 78.304688 137.132812 78.183594 137.125 C 75.242188 136.941406 72.152344 138.648438 72.125 138.667969 C 72.105469 138.679688 72.074219 138.695312 72.050781 138.707031 C 68.234375 140.703125 66.414062 140.84375 63.871094 140.84375 L 63.71875 140.84375 C 56.792969 140.84375 52.320312 136.847656 52.320312 130.664062 C 52.320312 127.273438 54.070312 124.320312 56.921875 119.789062 Z M 56.921875 119.789062 " fill-opacity="1" fill-rule="nonzero"/></g><g fill="#014b7f" fill-opacity="1"><g transform="translate(187.576483, 90.578769)"><g><path d="M 1.640625 -14.40625 C 1.640625 -16.519531 2.023438 -18.488281 2.796875 -20.3125 C 3.566406 -22.132812 4.644531 -23.722656 6.03125 -25.078125 C 7.414062 -26.441406 9.023438 -27.503906 10.859375 -28.265625 C 12.703125 -29.035156 14.707031 -29.421875 16.875 -29.421875 C 18.820312 -29.421875 20.519531 -29.191406 21.96875 -28.734375 C 23.425781 -28.285156 24.628906 -27.757812 25.578125 -27.15625 C 26.523438 -26.550781 27.226562 -26.023438 27.6875 -25.578125 C 28.15625 -25.128906 28.390625 -24.90625 28.390625 -24.90625 L 23.453125 -17.078125 C 23.453125 -17.078125 23.207031 -17.269531 22.71875 -17.65625 C 22.226562 -18.039062 21.578125 -18.414062 20.765625 -18.78125 C 19.953125 -19.15625 19.066406 -19.34375 18.109375 -19.34375 C 16.679688 -19.34375 15.5 -18.882812 14.5625 -17.96875 C 13.632812 -17.050781 13.171875 -15.863281 13.171875 -14.40625 C 13.171875 -12.976562 13.632812 -11.796875 14.5625 -10.859375 C 15.5 -9.929688 16.679688 -9.46875 18.109375 -9.46875 C 19.066406 -9.46875 19.953125 -9.660156 20.765625 -10.046875 C 21.578125 -10.429688 22.226562 -10.804688 22.71875 -11.171875 C 23.207031 -11.546875 23.453125 -11.734375 23.453125 -11.734375 L 28.390625 -3.90625 C 28.390625 -3.90625 28.15625 -3.675781 27.6875 -3.21875 C 27.226562 -2.769531 26.523438 -2.242188 25.578125 -1.640625 C 24.628906 -1.035156 23.425781 -0.503906 21.96875 -0.046875 C 20.519531 0.398438 18.820312 0.625 16.875 0.625 C 14.707031 0.625 12.703125 0.238281 10.859375 -0.53125 C 9.023438 -1.300781 7.414062 -2.363281 6.03125 -3.71875 C 4.644531 -5.082031 3.566406 -6.675781 2.796875 -8.5 C 2.023438 -10.320312 1.640625 -12.289062 1.640625 -14.40625 Z M 1.640625 -14.40625 "/></g></g></g><g fill="#014b7f" fill-opacity="1"><g transform="translate(216.793687, 90.578769)"><g><path d="M 12.765625 -22.4375 C 14.347656 -22.4375 15.835938 -22.140625 17.234375 -21.546875 C 18.640625 -20.953125 19.867188 -20.125 20.921875 -19.0625 C 21.984375 -18.007812 22.804688 -16.785156 23.390625 -15.390625 C 23.984375 -13.992188 24.28125 -12.5 24.28125 -10.90625 C 24.28125 -10.851562 24.28125 -10.664062 24.28125 -10.34375 C 24.28125 -10.03125 24.28125 -9.71875 24.28125 -9.40625 C 24.28125 -9.09375 24.28125 -8.90625 24.28125 -8.84375 L 11.109375 -8.84375 C 11.109375 -8.84375 11.191406 -8.65625 11.359375 -8.28125 C 11.523438 -7.914062 11.867188 -7.539062 12.390625 -7.15625 C 12.910156 -6.769531 13.71875 -6.578125 14.8125 -6.578125 C 15.5 -6.578125 16.125 -6.710938 16.6875 -6.984375 C 17.25 -7.265625 17.691406 -7.539062 18.015625 -7.8125 C 18.347656 -8.09375 18.515625 -8.234375 18.515625 -8.234375 L 22.015625 -2.671875 C 22.015625 -2.671875 21.820312 -2.503906 21.4375 -2.171875 C 21.050781 -1.847656 20.492188 -1.46875 19.765625 -1.03125 C 19.046875 -0.59375 18.148438 -0.207031 17.078125 0.125 C 16.003906 0.457031 14.769531 0.625 13.375 0.625 C 11.039062 0.625 8.960938 0.109375 7.140625 -0.921875 C 5.316406 -1.953125 3.875 -3.34375 2.8125 -5.09375 C 1.757812 -6.851562 1.234375 -8.789062 1.234375 -10.90625 C 1.234375 -12.5 1.523438 -13.992188 2.109375 -15.390625 C 2.703125 -16.785156 3.523438 -18.007812 4.578125 -19.0625 C 5.640625 -20.125 6.867188 -20.953125 8.265625 -21.546875 C 9.671875 -22.140625 11.171875 -22.4375 12.765625 -22.4375 Z M 10.90625 -12.765625 L 14.609375 -12.765625 C 14.609375 -13.585938 14.429688 -14.203125 14.078125 -14.609375 C 13.722656 -15.023438 13.285156 -15.234375 12.765625 -15.234375 C 12.234375 -15.234375 11.789062 -15.023438 11.4375 -14.609375 C 11.082031 -14.203125 10.90625 -13.585938 10.90625 -12.765625 Z M 10.90625 -12.765625 "/></g></g></g><g fill="#014b7f" fill-opacity="1"><g transform="translate(241.895784, 90.578769)"><g><path d="M 17.703125 -22.4375 C 19.066406 -22.4375 20.3125 -22.054688 21.4375 -21.296875 C 22.5625 -20.546875 23.453125 -19.363281 24.109375 -17.75 C 24.773438 -16.144531 25.109375 -14.070312 25.109375 -11.53125 L 25.109375 0 L 15.234375 0 L 15.234375 -11.53125 C 15.234375 -12.351562 15.0625 -12.96875 14.71875 -13.375 C 14.375 -13.789062 13.992188 -14 13.578125 -14 C 13.171875 -14 12.796875 -13.789062 12.453125 -13.375 C 12.109375 -12.96875 11.9375 -12.351562 11.9375 -11.53125 L 11.9375 0 L 2.0625 0 L 2.0625 -21.8125 L 11.53125 -21.8125 L 12.34375 -19.34375 C 12.34375 -19.34375 12.445312 -19.5 12.65625 -19.8125 C 12.863281 -20.132812 13.1875 -20.492188 13.625 -20.890625 C 14.0625 -21.285156 14.613281 -21.640625 15.28125 -21.953125 C 15.957031 -22.273438 16.765625 -22.4375 17.703125 -22.4375 Z M 17.703125 -22.4375 "/></g></g></g><g fill="#014b7f" fill-opacity="1"><g transform="translate(268.643929, 90.578769)"><g><path d="M 3.703125 -13.578125 L 0.828125 -13.578125 L 0.828125 -21.8125 L 3.703125 -21.8125 L 3.703125 -28.8125 L 13.578125 -28.8125 L 13.578125 -21.8125 L 17.28125 -21.8125 L 17.28125 -13.578125 L 13.578125 -13.578125 L 13.578125 -10.078125 C 13.578125 -9.253906 13.769531 -8.632812 14.15625 -8.21875 C 14.539062 -7.8125 15.035156 -7.609375 15.640625 -7.609375 C 16.046875 -7.609375 16.421875 -7.640625 16.765625 -7.703125 C 17.109375 -7.773438 17.28125 -7.8125 17.28125 -7.8125 L 17.28125 0.40625 C 17.28125 0.40625 16.921875 0.472656 16.203125 0.609375 C 15.492188 0.753906 14.617188 0.828125 13.578125 0.828125 C 10.503906 0.828125 8.085938 -0.0859375 6.328125 -1.921875 C 4.578125 -3.765625 3.703125 -6.484375 3.703125 -10.078125 Z M 3.703125 -13.578125 "/></g></g></g><g fill="#014b7f" fill-opacity="1"><g transform="translate(287.984899, 90.578769)"><g><path d="M 12.34375 -19.34375 C 12.34375 -19.34375 12.445312 -19.5 12.65625 -19.8125 C 12.863281 -20.132812 13.171875 -20.492188 13.578125 -20.890625 C 13.992188 -21.285156 14.507812 -21.640625 15.125 -21.953125 C 15.738281 -22.273438 16.457031 -22.4375 17.28125 -22.4375 C 18.101562 -22.4375 18.789062 -22.332031 19.34375 -22.125 C 19.894531 -21.914062 20.171875 -21.8125 20.171875 -21.8125 L 18.515625 -12.765625 C 18.515625 -12.765625 18.363281 -12.832031 18.0625 -12.96875 C 17.757812 -13.101562 17.378906 -13.238281 16.921875 -13.375 C 16.472656 -13.507812 16.046875 -13.578125 15.640625 -13.578125 C 14.617188 -13.578125 13.742188 -13.1875 13.015625 -12.40625 C 12.296875 -11.625 11.9375 -10.503906 11.9375 -9.046875 L 11.9375 0 L 2.0625 0 L 2.0625 -21.8125 L 11.53125 -21.8125 Z M 12.34375 -19.34375 "/></g></g></g><g fill="#014b7f" fill-opacity="1"><g transform="translate(307.737381, 90.578769)"><g><path d="M 1.234375 -10.90625 C 1.234375 -13.039062 1.765625 -14.976562 2.828125 -16.71875 C 3.898438 -18.46875 5.375 -19.859375 7.25 -20.890625 C 9.132812 -21.921875 11.3125 -22.4375 13.78125 -22.4375 C 16.25 -22.4375 18.429688 -21.921875 20.328125 -20.890625 C 22.222656 -19.859375 23.695312 -18.46875 24.75 -16.71875 C 25.8125 -14.976562 26.34375 -13.039062 26.34375 -10.90625 C 26.34375 -8.789062 25.8125 -6.851562 24.75 -5.09375 C 23.695312 -3.34375 22.222656 -1.953125 20.328125 -0.921875 C 18.429688 0.109375 16.25 0.625 13.78125 0.625 C 11.3125 0.625 9.132812 0.109375 7.25 -0.921875 C 5.375 -1.953125 3.898438 -3.34375 2.828125 -5.09375 C 1.765625 -6.851562 1.234375 -8.789062 1.234375 -10.90625 Z M 16.46875 -10.90625 C 16.46875 -11.84375 16.195312 -12.59375 15.65625 -13.15625 C 15.125 -13.71875 14.5 -14 13.78125 -14 C 13.070312 -14 12.445312 -13.71875 11.90625 -13.15625 C 11.375 -12.59375 11.109375 -11.84375 11.109375 -10.90625 C 11.109375 -9.96875 11.375 -9.21875 11.90625 -8.65625 C 12.445312 -8.09375 13.070312 -7.8125 13.78125 -7.8125 C 14.5 -7.8125 15.125 -8.09375 15.65625 -8.65625 C 16.195312 -9.21875 16.46875 -9.96875 16.46875 -10.90625 Z M 16.46875 -10.90625 "/></g></g></g><g fill="#014b7f" fill-opacity="1"><g transform="translate(335.308551, 90.578769)"><g/></g></g><g fill="#014b7f" fill-opacity="1"><g transform="translate(343.538751, 90.578769)"><g><path d="M 1.234375 -10.90625 C 1.234375 -13.375 1.632812 -15.460938 2.4375 -17.171875 C 3.25 -18.890625 4.3125 -20.195312 5.625 -21.09375 C 6.945312 -21.988281 8.363281 -22.4375 9.875 -22.4375 C 10.914062 -22.4375 11.800781 -22.273438 12.53125 -21.953125 C 13.257812 -21.640625 13.847656 -21.285156 14.296875 -20.890625 C 14.753906 -20.492188 15.09375 -20.132812 15.3125 -19.8125 C 15.53125 -19.5 15.640625 -19.34375 15.640625 -19.34375 L 15.640625 -30.453125 L 25.515625 -30.453125 L 25.515625 0 L 16.46875 0 C 16.1875 -0.820312 15.988281 -1.40625 15.875 -1.75 C 15.769531 -2.09375 15.703125 -2.296875 15.671875 -2.359375 C 15.648438 -2.429688 15.640625 -2.46875 15.640625 -2.46875 C 15.640625 -2.46875 15.53125 -2.304688 15.3125 -1.984375 C 15.09375 -1.671875 14.753906 -1.316406 14.296875 -0.921875 C 13.847656 -0.523438 13.257812 -0.171875 12.53125 0.140625 C 11.800781 0.460938 10.914062 0.625 9.875 0.625 C 8.363281 0.625 6.945312 0.175781 5.625 -0.71875 C 4.3125 -1.613281 3.25 -2.914062 2.4375 -4.625 C 1.632812 -6.34375 1.234375 -8.4375 1.234375 -10.90625 Z M 11.53125 -10.90625 C 11.53125 -9.894531 11.753906 -9.125 12.203125 -8.59375 C 12.648438 -8.070312 13.175781 -7.8125 13.78125 -7.8125 C 14.414062 -7.8125 14.953125 -8.070312 15.390625 -8.59375 C 15.828125 -9.125 16.046875 -9.894531 16.046875 -10.90625 C 16.046875 -11.945312 15.828125 -12.722656 15.390625 -13.234375 C 14.953125 -13.742188 14.414062 -14 13.78125 -14 C 13.175781 -14 12.648438 -13.742188 12.203125 -13.234375 C 11.753906 -12.722656 11.53125 -11.945312 11.53125 -10.90625 Z M 11.53125 -10.90625 "/></g></g></g><g fill="#014b7f" fill-opacity="1"><g transform="translate(371.109921, 90.578769)"><g><path d="M 12.765625 -22.4375 C 14.347656 -22.4375 15.835938 -22.140625 17.234375 -21.546875 C 18.640625 -20.953125 19.867188 -20.125 20.921875 -19.0625 C 21.984375 -18.007812 22.804688 -16.785156 23.390625 -15.390625 C 23.984375 -13.992188 24.28125 -12.5 24.28125 -10.90625 C 24.28125 -10.851562 24.28125 -10.664062 24.28125 -10.34375 C 24.28125 -10.03125 24.28125 -9.71875 24.28125 -9.40625 C 24.28125 -9.09375 24.28125 -8.90625 24.28125 -8.84375 L 11.109375 -8.84375 C 11.109375 -8.84375 11.191406 -8.65625 11.359375 -8.28125 C 11.523438 -7.914062 11.867188 -7.539062 12.390625 -7.15625 C 12.910156 -6.769531 13.71875 -6.578125 14.8125 -6.578125 C 15.5 -6.578125 16.125 -6.710938 16.6875 -6.984375 C 17.25 -7.265625 17.691406 -7.539062 18.015625 -7.8125 C 18.347656 -8.09375 18.515625 -8.234375 18.515625 -8.234375 L 22.015625 -2.671875 C 22.015625 -2.671875 21.820312 -2.503906 21.4375 -2.171875 C 21.050781 -1.847656 20.492188 -1.46875 19.765625 -1.03125 C 19.046875 -0.59375 18.148438 -0.207031 17.078125 0.125 C 16.003906 0.457031 14.769531 0.625 13.375 0.625 C 11.039062 0.625 8.960938 0.109375 7.140625 -0.921875 C 5.316406 -1.953125 3.875 -3.34375 2.8125 -5.09375 C 1.757812 -6.851562 1.234375 -8.789062 1.234375 -10.90625 C 1.234375 -12.5 1.523438 -13.992188 2.109375 -15.390625 C 2.703125 -16.785156 3.523438 -18.007812 4.578125 -19.0625 C 5.640625 -20.125 6.867188 -20.953125 8.265625 -21.546875 C 9.671875 -22.140625 11.171875 -22.4375 12.765625 -22.4375 Z M 10.90625 -12.765625 L 14.609375 -12.765625 C 14.609375 -13.585938 14.429688 -14.203125 14.078125 -14.609375 C 13.722656 -15.023438 13.285156 -15.234375 12.765625 -15.234375 C 12.234375 -15.234375 11.789062 -15.023438 11.4375 -14.609375 C 11.082031 -14.203125 10.90625 -13.585938 10.90625 -12.765625 Z M 10.90625 -12.765625 "/></g></g></g><g fill="#014b7f" fill-opacity="1"><g transform="translate(166.806547, 147.33437)"><g><path d="M 1.640625 -14.40625 C 1.640625 -16.519531 2.023438 -18.488281 2.796875 -20.3125 C 3.566406 -22.132812 4.644531 -23.722656 6.03125 -25.078125 C 7.414062 -26.441406 9.023438 -27.503906 10.859375 -28.265625 C 12.703125 -29.035156 14.707031 -29.421875 16.875 -29.421875 C 18.820312 -29.421875 20.519531 -29.191406 21.96875 -28.734375 C 23.425781 -28.285156 24.628906 -27.757812 25.578125 -27.15625 C 26.523438 -26.550781 27.226562 -26.023438 27.6875 -25.578125 C 28.15625 -25.128906 28.390625 -24.90625 28.390625 -24.90625 L 23.453125 -17.078125 C 23.453125 -17.078125 23.207031 -17.269531 22.71875 -17.65625 C 22.226562 -18.039062 21.578125 -18.414062 20.765625 -18.78125 C 19.953125 -19.15625 19.066406 -19.34375 18.109375 -19.34375 C 16.679688 -19.34375 15.5 -18.882812 14.5625 -17.96875 C 13.632812 -17.050781 13.171875 -15.863281 13.171875 -14.40625 C 13.171875 -12.976562 13.632812 -11.796875 14.5625 -10.859375 C 15.5 -9.929688 16.679688 -9.46875 18.109375 -9.46875 C 19.066406 -9.46875 19.953125 -9.660156 20.765625 -10.046875 C 21.578125 -10.429688 22.226562 -10.804688 22.71875 -11.171875 C 23.207031 -11.546875 23.453125 -11.734375 23.453125 -11.734375 L 28.390625 -3.90625 C 28.390625 -3.90625 28.15625 -3.675781 27.6875 -3.21875 C 27.226562 -2.769531 26.523438 -2.242188 25.578125 -1.640625 C 24.628906 -1.035156 23.425781 -0.503906 21.96875 -0.046875 C 20.519531 0.398438 18.820312 0.625 16.875 0.625 C 14.707031 0.625 12.703125 0.238281 10.859375 -0.53125 C 9.023438 -1.300781 7.414062 -2.363281 6.03125 -3.71875 C 4.644531 -5.082031 3.566406 -6.675781 2.796875 -8.5 C 2.023438 -10.320312 1.640625 -12.289062 1.640625 -14.40625 Z M 1.640625 -14.40625 "/></g></g></g><g fill="#014b7f" fill-opacity="1"><g transform="translate(196.023751, 147.33437)"><g><path d="M 1.234375 -10.90625 C 1.234375 -13.039062 1.765625 -14.976562 2.828125 -16.71875 C 3.898438 -18.46875 5.375 -19.859375 7.25 -20.890625 C 9.132812 -21.921875 11.3125 -22.4375 13.78125 -22.4375 C 16.25 -22.4375 18.429688 -21.921875 20.328125 -20.890625 C 22.222656 -19.859375 23.695312 -18.46875 24.75 -16.71875 C 25.8125 -14.976562 26.34375 -13.039062 26.34375 -10.90625 C 26.34375 -8.789062 25.8125 -6.851562 24.75 -5.09375 C 23.695312 -3.34375 22.222656 -1.953125 20.328125 -0.921875 C 18.429688 0.109375 16.25 0.625 13.78125 0.625 C 11.3125 0.625 9.132812 0.109375 7.25 -0.921875 C 5.375 -1.953125 3.898438 -3.34375 2.828125 -5.09375 C 1.765625 -6.851562 1.234375 -8.789062 1.234375 -10.90625 Z M 16.46875 -10.90625 C 16.46875 -11.84375 16.195312 -12.59375 15.65625 -13.15625 C 15.125 -13.71875 14.5 -14 13.78125 -14 C 13.070312 -14 12.445312 -13.71875 11.90625 -13.15625 C 11.375 -12.59375 11.109375 -11.84375 11.109375 -10.90625 C 11.109375 -9.96875 11.375 -9.21875 11.90625 -8.65625 C 12.445312 -8.09375 13.070312 -7.8125 13.78125 -7.8125 C 14.5 -7.8125 15.125 -8.09375 15.65625 -8.65625 C 16.195312 -9.21875 16.46875 -9.96875 16.46875 -10.90625 Z M 16.46875 -10.90625 "/></g></g></g><g fill="#014b7f" fill-opacity="1"><g transform="translate(223.594921, 147.33437)"><g><path d="M 17.703125 -22.4375 C 19.066406 -22.4375 20.3125 -22.054688 21.4375 -21.296875 C 22.5625 -20.546875 23.453125 -19.363281 24.109375 -17.75 C 24.773438 -16.144531 25.109375 -14.070312 25.109375 -11.53125 L 25.109375 0 L 15.234375 0 L 15.234375 -11.53125 C 15.234375 -12.351562 15.0625 -12.96875 14.71875 -13.375 C 14.375 -13.789062 13.992188 -14 13.578125 -14 C 13.171875 -14 12.796875 -13.789062 12.453125 -13.375 C 12.109375 -12.96875 11.9375 -12.351562 11.9375 -11.53125 L 11.9375 0 L 2.0625 0 L 2.0625 -21.8125 L 11.53125 -21.8125 L 12.34375 -19.34375 C 12.34375 -19.34375 12.445312 -19.5 12.65625 -19.8125 C 12.863281 -20.132812 13.1875 -20.492188 13.625 -20.890625 C 14.0625 -21.285156 14.613281 -21.640625 15.28125 -21.953125 C 15.957031 -22.273438 16.765625 -22.4375 17.703125 -22.4375 Z M 17.703125 -22.4375 "/></g></g></g><g fill="#014b7f" fill-opacity="1"><g transform="translate(250.343066, 147.33437)"><g><path d="M 3.703125 -13.578125 L 0.828125 -13.578125 L 0.828125 -21.8125 L 3.703125 -21.8125 L 3.703125 -28.8125 L 13.578125 -28.8125 L 13.578125 -21.8125 L 17.28125 -21.8125 L 17.28125 -13.578125 L 13.578125 -13.578125 L 13.578125 -10.078125 C 13.578125 -9.253906 13.769531 -8.632812 14.15625 -8.21875 C 14.539062 -7.8125 15.035156 -7.609375 15.640625 -7.609375 C 16.046875 -7.609375 16.421875 -7.640625 16.765625 -7.703125 C 17.109375 -7.773438 17.28125 -7.8125 17.28125 -7.8125 L 17.28125 0.40625 C 17.28125 0.40625 16.921875 0.472656 16.203125 0.609375 C 15.492188 0.753906 14.617188 0.828125 13.578125 0.828125 C 10.503906 0.828125 8.085938 -0.0859375 6.328125 -1.921875 C 4.578125 -3.765625 3.703125 -6.484375 3.703125 -10.078125 Z M 3.703125 -13.578125 "/></g></g></g><g fill="#014b7f" fill-opacity="1"><g transform="translate(269.684036, 147.33437)"><g><path d="M 12.34375 -19.34375 C 12.34375 -19.34375 12.445312 -19.5 12.65625 -19.8125 C 12.863281 -20.132812 13.171875 -20.492188 13.578125 -20.890625 C 13.992188 -21.285156 14.507812 -21.640625 15.125 -21.953125 C 15.738281 -22.273438 16.457031 -22.4375 17.28125 -22.4375 C 18.101562 -22.4375 18.789062 -22.332031 19.34375 -22.125 C 19.894531 -21.914062 20.171875 -21.8125 20.171875 -21.8125 L 18.515625 -12.765625 C 18.515625 -12.765625 18.363281 -12.832031 18.0625 -12.96875 C 17.757812 -13.101562 17.378906 -13.238281 16.921875 -13.375 C 16.472656 -13.507812 16.046875 -13.578125 15.640625 -13.578125 C 14.617188 -13.578125 13.742188 -13.1875 13.015625 -12.40625 C 12.296875 -11.625 11.9375 -10.503906 11.9375 -9.046875 L 11.9375 0 L 2.0625 0 L 2.0625 -21.8125 L 11.53125 -21.8125 Z M 12.34375 -19.34375 "/></g></g></g><g fill="#014b7f" fill-opacity="1"><g transform="translate(289.436519, 147.33437)"><g><path d="M 1.234375 -10.90625 C 1.234375 -13.039062 1.765625 -14.976562 2.828125 -16.71875 C 3.898438 -18.46875 5.375 -19.859375 7.25 -20.890625 C 9.132812 -21.921875 11.3125 -22.4375 13.78125 -22.4375 C 16.25 -22.4375 18.429688 -21.921875 20.328125 -20.890625 C 22.222656 -19.859375 23.695312 -18.46875 24.75 -16.71875 C 25.8125 -14.976562 26.34375 -13.039062 26.34375 -10.90625 C 26.34375 -8.789062 25.8125 -6.851562 24.75 -5.09375 C 23.695312 -3.34375 22.222656 -1.953125 20.328125 -0.921875 C 18.429688 0.109375 16.25 0.625 13.78125 0.625 C 11.3125 0.625 9.132812 0.109375 7.25 -0.921875 C 5.375 -1.953125 3.898438 -3.34375 2.828125 -5.09375 C 1.765625 -6.851562 1.234375 -8.789062 1.234375 -10.90625 Z M 16.46875 -10.90625 C 16.46875 -11.84375 16.195312 -12.59375 15.65625 -13.15625 C 15.125 -13.71875 14.5 -14 13.78125 -14 C 13.070312 -14 12.445312 -13.71875 11.90625 -13.15625 C 11.375 -12.59375 11.109375 -11.84375 11.109375 -10.90625 C 11.109375 -9.96875 11.375 -9.21875 11.90625 -8.65625 C 12.445312 -8.09375 13.070312 -7.8125 13.78125 -7.8125 C 14.5 -7.8125 15.125 -8.09375 15.65625 -8.65625 C 16.195312 -9.21875 16.46875 -9.96875 16.46875 -10.90625 Z M 16.46875 -10.90625 "/></g></g></g><g fill="#014b7f" fill-opacity="1"><g transform="translate(317.007689, 147.33437)"><g><path d="M 2.0625 0 L 2.0625 -30.453125 L 11.9375 -30.453125 L 11.9375 0 Z M 2.0625 0 "/></g></g></g><g fill="#014b7f" fill-opacity="1"><g transform="translate(330.99903, 147.33437)"><g><path d="M 12.765625 -22.4375 C 14.347656 -22.4375 15.835938 -22.140625 17.234375 -21.546875 C 18.640625 -20.953125 19.867188 -20.125 20.921875 -19.0625 C 21.984375 -18.007812 22.804688 -16.785156 23.390625 -15.390625 C 23.984375 -13.992188 24.28125 -12.5 24.28125 -10.90625 C 24.28125 -10.851562 24.28125 -10.664062 24.28125 -10.34375 C 24.28125 -10.03125 24.28125 -9.71875 24.28125 -9.40625 C 24.28125 -9.09375 24.28125 -8.90625 24.28125 -8.84375 L 11.109375 -8.84375 C 11.109375 -8.84375 11.191406 -8.65625 11.359375 -8.28125 C 11.523438 -7.914062 11.867188 -7.539062 12.390625 -7.15625 C 12.910156 -6.769531 13.71875 -6.578125 14.8125 -6.578125 C 15.5 -6.578125 16.125 -6.710938 16.6875 -6.984375 C 17.25 -7.265625 17.691406 -7.539062 18.015625 -7.8125 C 18.347656 -8.09375 18.515625 -8.234375 18.515625 -8.234375 L 22.015625 -2.671875 C 22.015625 -2.671875 21.820312 -2.503906 21.4375 -2.171875 C 21.050781 -1.847656 20.492188 -1.46875 19.765625 -1.03125 C 19.046875 -0.59375 18.148438 -0.207031 17.078125 0.125 C 16.003906 0.457031 14.769531 0.625 13.375 0.625 C 11.039062 0.625 8.960938 0.109375 7.140625 -0.921875 C 5.316406 -1.953125 3.875 -3.34375 2.8125 -5.09375 C 1.757812 -6.851562 1.234375 -8.789062 1.234375 -10.90625 C 1.234375 -12.5 1.523438 -13.992188 2.109375 -15.390625 C 2.703125 -16.785156 3.523438 -18.007812 4.578125 -19.0625 C 5.640625 -20.125 6.867188 -20.953125 8.265625 -21.546875 C 9.671875 -22.140625 11.171875 -22.4375 12.765625 -22.4375 Z M 10.90625 -12.765625 L 14.609375 -12.765625 C 14.609375 -13.585938 14.429688 -14.203125 14.078125 -14.609375 C 13.722656 -15.023438 13.285156 -15.234375 12.765625 -15.234375 C 12.234375 -15.234375 11.789062 -15.023438 11.4375 -14.609375 C 11.082031 -14.203125 10.90625 -13.585938 10.90625 -12.765625 Z M 10.90625 -12.765625 "/></g></g></g><g fill="#014b7f" fill-opacity="1"><g transform="translate(356.101126, 147.33437)"><g/></g></g><g fill="#014b7f" fill-opacity="1"><g transform="translate(364.331326, 147.33437)"><g><path d="M 1.234375 -10.90625 C 1.234375 -13.375 1.632812 -15.460938 2.4375 -17.171875 C 3.25 -18.890625 4.3125 -20.195312 5.625 -21.09375 C 6.945312 -21.988281 8.363281 -22.4375 9.875 -22.4375 C 10.914062 -22.4375 11.800781 -22.273438 12.53125 -21.953125 C 13.257812 -21.640625 13.847656 -21.285156 14.296875 -20.890625 C 14.753906 -20.492188 15.09375 -20.132812 15.3125 -19.8125 C 15.53125 -19.5 15.640625 -19.34375 15.640625 -19.34375 L 15.640625 -30.453125 L 25.515625 -30.453125 L 25.515625 0 L 16.46875 0 C 16.1875 -0.820312 15.988281 -1.40625 15.875 -1.75 C 15.769531 -2.09375 15.703125 -2.296875 15.671875 -2.359375 C 15.648438 -2.429688 15.640625 -2.46875 15.640625 -2.46875 C 15.640625 -2.46875 15.53125 -2.304688 15.3125 -1.984375 C 15.09375 -1.671875 14.753906 -1.316406 14.296875 -0.921875 C 13.847656 -0.523438 13.257812 -0.171875 12.53125 0.140625 C 11.800781 0.460938 10.914062 0.625 9.875 0.625 C 8.363281 0.625 6.945312 0.175781 5.625 -0.71875 C 4.3125 -1.613281 3.25 -2.914062 2.4375 -4.625 C 1.632812 -6.34375 1.234375 -8.4375 1.234375 -10.90625 Z M 11.53125 -10.90625 C 11.53125 -9.894531 11.753906 -9.125 12.203125 -8.59375 C 12.648438 -8.070312 13.175781 -7.8125 13.78125 -7.8125 C 14.414062 -7.8125 14.953125 -8.070312 15.390625 -8.59375 C 15.828125 -9.125 16.046875 -9.894531 16.046875 -10.90625 C 16.046875 -11.945312 15.828125 -12.722656 15.390625 -13.234375 C 14.953125 -13.742188 14.414062 -14 13.78125 -14 C 13.175781 -14 12.648438 -13.742188 12.203125 -13.234375 C 11.753906 -12.722656 11.53125 -11.945312 11.53125 -10.90625 Z M 11.53125 -10.90625 "/></g></g></g><g fill="#014b7f" fill-opacity="1"><g transform="translate(391.902496, 147.33437)"><g><path d="M 12.765625 -22.4375 C 14.347656 -22.4375 15.835938 -22.140625 17.234375 -21.546875 C 18.640625 -20.953125 19.867188 -20.125 20.921875 -19.0625 C 21.984375 -18.007812 22.804688 -16.785156 23.390625 -15.390625 C 23.984375 -13.992188 24.28125 -12.5 24.28125 -10.90625 C 24.28125 -10.851562 24.28125 -10.664062 24.28125 -10.34375 C 24.28125 -10.03125 24.28125 -9.71875 24.28125 -9.40625 C 24.28125 -9.09375 24.28125 -8.90625 24.28125 -8.84375 L 11.109375 -8.84375 C 11.109375 -8.84375 11.191406 -8.65625 11.359375 -8.28125 C 11.523438 -7.914062 11.867188 -7.539062 12.390625 -7.15625 C 12.910156 -6.769531 13.71875 -6.578125 14.8125 -6.578125 C 15.5 -6.578125 16.125 -6.710938 16.6875 -6.984375 C 17.25 -7.265625 17.691406 -7.539062 18.015625 -7.8125 C 18.347656 -8.09375 18.515625 -8.234375 18.515625 -8.234375 L 22.015625 -2.671875 C 22.015625 -2.671875 21.820312 -2.503906 21.4375 -2.171875 C 21.050781 -1.847656 20.492188 -1.46875 19.765625 -1.03125 C 19.046875 -0.59375 18.148438 -0.207031 17.078125 0.125 C 16.003906 0.457031 14.769531 0.625 13.375 0.625 C 11.039062 0.625 8.960938 0.109375 7.140625 -0.921875 C 5.316406 -1.953125 3.875 -3.34375 2.8125 -5.09375 C 1.757812 -6.851562 1.234375 -8.789062 1.234375 -10.90625 C 1.234375 -12.5 1.523438 -13.992188 2.109375 -15.390625 C 2.703125 -16.785156 3.523438 -18.007812 4.578125 -19.0625 C 5.640625 -20.125 6.867188 -20.953125 8.265625 -21.546875 C 9.671875 -22.140625 11.171875 -22.4375 12.765625 -22.4375 Z M 10.90625 -12.765625 L 14.609375 -12.765625 C 14.609375 -13.585938 14.429688 -14.203125 14.078125 -14.609375 C 13.722656 -15.023438 13.285156 -15.234375 12.765625 -15.234375 C 12.234375 -15.234375 11.789062 -15.023438 11.4375 -14.609375 C 11.082031 -14.203125 10.90625 -13.585938 10.90625 -12.765625 Z M 10.90625 -12.765625 "/></g></g></g><g fill="#014b7f" fill-opacity="1"><g transform="translate(189.225632, 204.089971)"><g><path d="M 25.921875 -19.75 L 15.640625 -9.046875 L 26.34375 -9.046875 L 26.34375 0 L 2.0625 0 L 2.0625 -9.046875 L 12.34375 -19.75 L 2.875 -19.75 L 2.875 -28.8125 L 25.921875 -28.8125 Z M 25.921875 -19.75 "/></g></g></g><g fill="#014b7f" fill-opacity="1"><g transform="translate(217.619811, 204.089971)"><g><path d="M 1.234375 -10.90625 C 1.234375 -13.039062 1.765625 -14.976562 2.828125 -16.71875 C 3.898438 -18.46875 5.375 -19.859375 7.25 -20.890625 C 9.132812 -21.921875 11.3125 -22.4375 13.78125 -22.4375 C 16.25 -22.4375 18.429688 -21.921875 20.328125 -20.890625 C 22.222656 -19.859375 23.695312 -18.46875 24.75 -16.71875 C 25.8125 -14.976562 26.34375 -13.039062 26.34375 -10.90625 C 26.34375 -8.789062 25.8125 -6.851562 24.75 -5.09375 C 23.695312 -3.34375 22.222656 -1.953125 20.328125 -0.921875 C 18.429688 0.109375 16.25 0.625 13.78125 0.625 C 11.3125 0.625 9.132812 0.109375 7.25 -0.921875 C 5.375 -1.953125 3.898438 -3.34375 2.828125 -5.09375 C 1.765625 -6.851562 1.234375 -8.789062 1.234375 -10.90625 Z M 16.46875 -10.90625 C 16.46875 -11.84375 16.195312 -12.59375 15.65625 -13.15625 C 15.125 -13.71875 14.5 -14 13.78125 -14 C 13.070312 -14 12.445312 -13.71875 11.90625 -13.15625 C 11.375 -12.59375 11.109375 -11.84375 11.109375 -10.90625 C 11.109375 -9.96875 11.375 -9.21875 11.90625 -8.65625 C 12.445312 -8.09375 13.070312 -7.8125 13.78125 -7.8125 C 14.5 -7.8125 15.125 -8.09375 15.65625 -8.65625 C 16.195312 -9.21875 16.46875 -9.96875 16.46875 -10.90625 Z M 16.46875 -10.90625 "/></g></g></g><g fill="#014b7f" fill-opacity="1"><g transform="translate(245.190981, 204.089971)"><g><path d="M 1.234375 -10.90625 C 1.234375 -13.039062 1.765625 -14.976562 2.828125 -16.71875 C 3.898438 -18.46875 5.375 -19.859375 7.25 -20.890625 C 9.132812 -21.921875 11.3125 -22.4375 13.78125 -22.4375 C 16.25 -22.4375 18.429688 -21.921875 20.328125 -20.890625 C 22.222656 -19.859375 23.695312 -18.46875 24.75 -16.71875 C 25.8125 -14.976562 26.34375 -13.039062 26.34375 -10.90625 C 26.34375 -8.789062 25.8125 -6.851562 24.75 -5.09375 C 23.695312 -3.34375 22.222656 -1.953125 20.328125 -0.921875 C 18.429688 0.109375 16.25 0.625 13.78125 0.625 C 11.3125 0.625 9.132812 0.109375 7.25 -0.921875 C 5.375 -1.953125 3.898438 -3.34375 2.828125 -5.09375 C 1.765625 -6.851562 1.234375 -8.789062 1.234375 -10.90625 Z M 16.46875 -10.90625 C 16.46875 -11.84375 16.195312 -12.59375 15.65625 -13.15625 C 15.125 -13.71875 14.5 -14 13.78125 -14 C 13.070312 -14 12.445312 -13.71875 11.90625 -13.15625 C 11.375 -12.59375 11.109375 -11.84375 11.109375 -10.90625 C 11.109375 -9.96875 11.375 -9.21875 11.90625 -8.65625 C 12.445312 -8.09375 13.070312 -7.8125 13.78125 -7.8125 C 14.5 -7.8125 15.125 -8.09375 15.65625 -8.65625 C 16.195312 -9.21875 16.46875 -9.96875 16.46875 -10.90625 Z M 16.46875 -10.90625 "/></g></g></g><g fill="#014b7f" fill-opacity="1"><g transform="translate(272.762151, 204.089971)"><g><path d="M 17.703125 -22.4375 C 19.066406 -22.4375 20.3125 -22.054688 21.4375 -21.296875 C 22.5625 -20.546875 23.453125 -19.363281 24.109375 -17.75 C 24.773438 -16.144531 25.109375 -14.070312 25.109375 -11.53125 L 25.109375 0 L 15.234375 0 L 15.234375 -11.53125 C 15.234375 -12.351562 15.0625 -12.96875 14.71875 -13.375 C 14.375 -13.789062 13.992188 -14 13.578125 -14 C 13.171875 -14 12.796875 -13.789062 12.453125 -13.375 C 12.109375 -12.96875 11.9375 -12.351562 11.9375 -11.53125 L 11.9375 0 L 2.0625 0 L 2.0625 -21.8125 L 11.53125 -21.8125 L 12.34375 -19.34375 C 12.34375 -19.34375 12.445312 -19.5 12.65625 -19.8125 C 12.863281 -20.132812 13.1875 -20.492188 13.625 -20.890625 C 14.0625 -21.285156 14.613281 -21.640625 15.28125 -21.953125 C 15.957031 -22.273438 16.765625 -22.4375 17.703125 -22.4375 Z M 17.703125 -22.4375 "/></g></g></g><g fill="#014b7f" fill-opacity="1"><g transform="translate(299.510296, 204.089971)"><g><path d="M 1.234375 -10.90625 C 1.234375 -13.039062 1.765625 -14.976562 2.828125 -16.71875 C 3.898438 -18.46875 5.375 -19.859375 7.25 -20.890625 C 9.132812 -21.921875 11.3125 -22.4375 13.78125 -22.4375 C 16.25 -22.4375 18.429688 -21.921875 20.328125 -20.890625 C 22.222656 -19.859375 23.695312 -18.46875 24.75 -16.71875 C 25.8125 -14.976562 26.34375 -13.039062 26.34375 -10.90625 C 26.34375 -8.789062 25.8125 -6.851562 24.75 -5.09375 C 23.695312 -3.34375 22.222656 -1.953125 20.328125 -0.921875 C 18.429688 0.109375 16.25 0.625 13.78125 0.625 C 11.3125 0.625 9.132812 0.109375 7.25 -0.921875 C 5.375 -1.953125 3.898438 -3.34375 2.828125 -5.09375 C 1.765625 -6.851562 1.234375 -8.789062 1.234375 -10.90625 Z M 16.46875 -10.90625 C 16.46875 -11.84375 16.195312 -12.59375 15.65625 -13.15625 C 15.125 -13.71875 14.5 -14 13.78125 -14 C 13.070312 -14 12.445312 -13.71875 11.90625 -13.15625 C 11.375 -12.59375 11.109375 -11.84375 11.109375 -10.90625 C 11.109375 -9.96875 11.375 -9.21875 11.90625 -8.65625 C 12.445312 -8.09375 13.070312 -7.8125 13.78125 -7.8125 C 14.5 -7.8125 15.125 -8.09375 15.65625 -8.65625 C 16.195312 -9.21875 16.46875 -9.96875 16.46875 -10.90625 Z M 16.46875 -10.90625 "/></g></g></g><g fill="#014b7f" fill-opacity="1"><g transform="translate(327.081466, 204.089971)"><g><path d="M 20.375 -6.578125 C 20.375 -5.296875 20.007812 -4.101562 19.28125 -3 C 18.550781 -1.90625 17.472656 -1.023438 16.046875 -0.359375 C 14.617188 0.296875 12.835938 0.625 10.703125 0.625 C 9.003906 0.625 7.515625 0.421875 6.234375 0.015625 C 4.960938 -0.378906 3.894531 -0.828125 3.03125 -1.328125 C 2.164062 -1.835938 1.507812 -2.289062 1.0625 -2.6875 C 0.625 -3.09375 0.40625 -3.296875 0.40625 -3.296875 L 3.5 -8.234375 C 3.5 -8.234375 3.710938 -8.0625 4.140625 -7.71875 C 4.566406 -7.375 5.171875 -7.03125 5.953125 -6.6875 C 6.734375 -6.34375 7.628906 -6.171875 8.640625 -6.171875 C 8.941406 -6.171875 9.1875 -6.257812 9.375 -6.4375 C 9.570312 -6.613281 9.671875 -6.800781 9.671875 -7 C 9.671875 -7.238281 9.398438 -7.46875 8.859375 -7.6875 C 8.328125 -7.914062 7.660156 -8.191406 6.859375 -8.515625 C 6.066406 -8.847656 5.265625 -9.285156 4.453125 -9.828125 C 3.648438 -10.378906 2.976562 -11.085938 2.4375 -11.953125 C 1.90625 -12.816406 1.640625 -13.910156 1.640625 -15.234375 C 1.640625 -16.546875 2.003906 -17.742188 2.734375 -18.828125 C 3.460938 -19.910156 4.546875 -20.78125 5.984375 -21.4375 C 7.429688 -22.101562 9.207031 -22.4375 11.3125 -22.4375 C 12.71875 -22.4375 13.972656 -22.253906 15.078125 -21.890625 C 16.191406 -21.535156 17.140625 -21.128906 17.921875 -20.671875 C 18.703125 -20.222656 19.304688 -19.820312 19.734375 -19.46875 C 20.160156 -19.113281 20.375 -18.9375 20.375 -18.9375 L 17.28125 -14 C 17.28125 -14 17.109375 -14.132812 16.765625 -14.40625 C 16.421875 -14.675781 15.960938 -14.945312 15.390625 -15.21875 C 14.816406 -15.5 14.144531 -15.640625 13.375 -15.640625 C 13.070312 -15.640625 12.820312 -15.554688 12.625 -15.390625 C 12.4375 -15.222656 12.34375 -15.03125 12.34375 -14.8125 C 12.34375 -14.570312 12.609375 -14.335938 13.140625 -14.109375 C 13.679688 -13.890625 14.351562 -13.613281 15.15625 -13.28125 C 15.96875 -12.957031 16.769531 -12.519531 17.5625 -11.96875 C 18.363281 -11.425781 19.03125 -10.722656 19.5625 -9.859375 C 20.101562 -8.992188 20.375 -7.898438 20.375 -6.578125 Z M 20.375 -6.578125 "/></g></g></g><g fill="#014b7f" fill-opacity="1"><g transform="translate(348.274219, 204.089971)"><g><path d="M 12.765625 -22.4375 C 14.347656 -22.4375 15.835938 -22.140625 17.234375 -21.546875 C 18.640625 -20.953125 19.867188 -20.125 20.921875 -19.0625 C 21.984375 -18.007812 22.804688 -16.785156 23.390625 -15.390625 C 23.984375 -13.992188 24.28125 -12.5 24.28125 -10.90625 C 24.28125 -10.851562 24.28125 -10.664062 24.28125 -10.34375 C 24.28125 -10.03125 24.28125 -9.71875 24.28125 -9.40625 C 24.28125 -9.09375 24.28125 -8.90625 24.28125 -8.84375 L 11.109375 -8.84375 C 11.109375 -8.84375 11.191406 -8.65625 11.359375 -8.28125 C 11.523438 -7.914062 11.867188 -7.539062 12.390625 -7.15625 C 12.910156 -6.769531 13.71875 -6.578125 14.8125 -6.578125 C 15.5 -6.578125 16.125 -6.710938 16.6875 -6.984375 C 17.25 -7.265625 17.691406 -7.539062 18.015625 -7.8125 C 18.347656 -8.09375 18.515625 -8.234375 18.515625 -8.234375 L 22.015625 -2.671875 C 22.015625 -2.671875 21.820312 -2.503906 21.4375 -2.171875 C 21.050781 -1.847656 20.492188 -1.46875 19.765625 -1.03125 C 19.046875 -0.59375 18.148438 -0.207031 17.078125 0.125 C 16.003906 0.457031 14.769531 0.625 13.375 0.625 C 11.039062 0.625 8.960938 0.109375 7.140625 -0.921875 C 5.316406 -1.953125 3.875 -3.34375 2.8125 -5.09375 C 1.757812 -6.851562 1.234375 -8.789062 1.234375 -10.90625 C 1.234375 -12.5 1.523438 -13.992188 2.109375 -15.390625 C 2.703125 -16.785156 3.523438 -18.007812 4.578125 -19.0625 C 5.640625 -20.125 6.867188 -20.953125 8.265625 -21.546875 C 9.671875 -22.140625 11.171875 -22.4375 12.765625 -22.4375 Z M 10.90625 -12.765625 L 14.609375 -12.765625 C 14.609375 -13.585938 14.429688 -14.203125 14.078125 -14.609375 C 13.722656 -15.023438 13.285156 -15.234375 12.765625 -15.234375 C 12.234375 -15.234375 11.789062 -15.023438 11.4375 -14.609375 C 11.082031 -14.203125 10.90625 -13.585938 10.90625 -12.765625 Z M 10.90625 -12.765625 "/></g></g></g><g fill="#014b7f" fill-opacity="1"><g transform="translate(373.376315, 204.089971)"><g><path d="M 20.375 -6.578125 C 20.375 -5.296875 20.007812 -4.101562 19.28125 -3 C 18.550781 -1.90625 17.472656 -1.023438 16.046875 -0.359375 C 14.617188 0.296875 12.835938 0.625 10.703125 0.625 C 9.003906 0.625 7.515625 0.421875 6.234375 0.015625 C 4.960938 -0.378906 3.894531 -0.828125 3.03125 -1.328125 C 2.164062 -1.835938 1.507812 -2.289062 1.0625 -2.6875 C 0.625 -3.09375 0.40625 -3.296875 0.40625 -3.296875 L 3.5 -8.234375 C 3.5 -8.234375 3.710938 -8.0625 4.140625 -7.71875 C 4.566406 -7.375 5.171875 -7.03125 5.953125 -6.6875 C 6.734375 -6.34375 7.628906 -6.171875 8.640625 -6.171875 C 8.941406 -6.171875 9.1875 -6.257812 9.375 -6.4375 C 9.570312 -6.613281 9.671875 -6.800781 9.671875 -7 C 9.671875 -7.238281 9.398438 -7.46875 8.859375 -7.6875 C 8.328125 -7.914062 7.660156 -8.191406 6.859375 -8.515625 C 6.066406 -8.847656 5.265625 -9.285156 4.453125 -9.828125 C 3.648438 -10.378906 2.976562 -11.085938 2.4375 -11.953125 C 1.90625 -12.816406 1.640625 -13.910156 1.640625 -15.234375 C 1.640625 -16.546875 2.003906 -17.742188 2.734375 -18.828125 C 3.460938 -19.910156 4.546875 -20.78125 5.984375 -21.4375 C 7.429688 -22.101562 9.207031 -22.4375 11.3125 -22.4375 C 12.71875 -22.4375 13.972656 -22.253906 15.078125 -21.890625 C 16.191406 -21.535156 17.140625 -21.128906 17.921875 -20.671875 C 18.703125 -20.222656 19.304688 -19.820312 19.734375 -19.46875 C 20.160156 -19.113281 20.375 -18.9375 20.375 -18.9375 L 17.28125 -14 C 17.28125 -14 17.109375 -14.132812 16.765625 -14.40625 C 16.421875 -14.675781 15.960938 -14.945312 15.390625 -15.21875 C 14.816406 -15.5 14.144531 -15.640625 13.375 -15.640625 C 13.070312 -15.640625 12.820312 -15.554688 12.625 -15.390625 C 12.4375 -15.222656 12.34375 -15.03125 12.34375 -14.8125 C 12.34375 -14.570312 12.609375 -14.335938 13.140625 -14.109375 C 13.679688 -13.890625 14.351562 -13.613281 15.15625 -13.28125 C 15.96875 -12.957031 16.769531 -12.519531 17.5625 -11.96875 C 18.363281 -11.425781 19.03125 -10.722656 19.5625 -9.859375 C 20.101562 -8.992188 20.375 -7.898438 20.375 -6.578125 Z M 20.375 -6.578125 "/></g></g></g></svg>