<svg viewBox="0 0 24 24" xml:space="preserve" xmlns="http://www.w3.org/2000/svg" enable-background="new 0 0 24 24"><g id="Layer_2"><path d="M12 20H8c-1.1 0-2-.9-2-2V6c0-1.1.9-2 2-2h3v3c0 2.2 1.8 4 4 4h3v1.9c0 .6.4 1 1 1s1-.4 1-1v-3c0-.1 0-.2-.1-.3v-.1c0-.1-.1-.2-.2-.3l-7-7c-.1-.1-.2-.1-.3-.2h-.1c-.1 0-.2 0-.3-.1H8C5.8 2 4 3.8 4 6v12c0 2.2 1.8 4 4 4h4c.6 0 1-.4 1-1s-.4-1-1-1zm1-14.6L16.6 9H15c-1.1 0-2-.9-2-2V5.4z" fill="#007bbb" class="fill-000000"></path><path d="m20.7 20.3-1-1s-.1-.1-.2-.1c.3-.5.5-1.1.5-1.7 0-1.9-1.6-3.5-3.5-3.5S13 15.6 13 17.5s1.6 3.5 3.5 3.5c.6 0 1.2-.2 1.7-.5 0 .1.1.1.1.2l1 1c.2.2.5.3.7.3s.5-.1.7-.3c.4-.4.4-1 0-1.4zM16.5 19c-.8 0-1.5-.7-1.5-1.5s.7-1.5 1.5-1.5 1.5.7 1.5 1.5-.7 1.5-1.5 1.5z" fill="#007bbb" class="fill-000000"></path></g></svg>