<svg id="Layer_1" version="1.1" viewBox="0 0 30 30" xml:space="preserve" xmlns="http://www.w3.org/2000/svg" enable-background="new 0 0 30 30"><path d="m26.6 12.9-2.9-.3c-.2-.7-.5-1.4-.8-2l1.8-2.3c.2-.2.1-.5 0-.7l-2.2-2.2c-.2-.2-.5-.2-.7 0l-2.3 1.8c-.6-.4-1.3-.6-2-.8l-.3-2.9c-.2-.3-.4-.5-.6-.5h-3.1c-.3 0-.5.2-.5.4l-.3 2.9c-.7.2-1.4.5-2 .8L8.3 5.4c-.2-.2-.5-.1-.7 0L5.4 7.6c-.2.2-.2.5 0 .7l1.8 2.3c-.4.6-.6 1.3-.8 2l-2.9.3c-.3.1-.5.3-.5.5v3.1c0 .3.2.5.4.5l2.9.3c.2.7.5 1.4.8 2l-1.8 2.3c-.2.2-.1.5 0 .7l2.2 2.2c.2.2.5.2.7 0l2.3-1.8c.6.4 1.3.6 2 .8l.3 2.9c0 .3.2.4.5.4h3.1c.3 0 .5-.2.5-.4l.3-2.9c.7-.2 1.4-.5 2-.8l2.3 1.8c.2.2.5.1.7 0l2.2-2.2c.2-.2.2-.5 0-.7l-1.8-2.3c.4-.6.6-1.3.8-2l2.9-.3c.3 0 .4-.2.4-.5v-3.1c.3-.2.1-.4-.1-.5zM15 19c-2.2 0-4-1.8-4-4s1.8-4 4-4 4 1.8 4 4-1.8 4-4 4z" fill="#f8f5f5" class="fill-8797ee"></path></svg>