<svg viewBox="0 0 32 32" xmlns="http://www.w3.org/2000/svg"><path d="M26.74 8.5a.65.65 0 0 0 0-.19.64.64 0 0 0 0-.07.86.86 0 0 0-.21-.24l-5.67-5.54a.83.83 0 0 0-.22-.14h-.07a.58.58 0 0 0-.18 0H6a.76.76 0 0 0-.75.68v26a.76.76 0 0 0 .75.75h20a.76.76 0 0 0 .75-.75V8.55s-.01-.03-.01-.05Zm-9.19 12.3a4.71 4.71 0 0 1-2.79-.92L11 23.69a.75.75 0 0 1-1.06 0 .75.75 0 0 1 0-1.06l3.81-3.81a4.71 4.71 0 0 1-.93-2.8 4.78 4.78 0 1 1 4.78 4.78Zm7.7-11.5h-4.91a.75.75 0 0 1-.75-.75v-4.8H20l1.06 1 3.07 3 1.09 1.06Zm-7.7 3.45A3.28 3.28 0 1 0 20.83 16a3.28 3.28 0 0 0-3.28-3.25Z" fill="#f8f5f5" class="fill-1a1a1a"></path></svg>